<svg xmlns="http://www.w3.org/2000/svg" width="192" height="192" viewBox="0 0 192 192">
  <rect width="192" height="192" rx="40" fill="#1a1a2e"/>
  <g stroke="#6c63ff" stroke-width="3" stroke-linecap="round" fill="none">
    <line x1="40" y1="96" x2="40" y2="76"/>
    <line x1="56" y1="96" x2="56" y2="56"/>
    <line x1="72" y1="96" x2="72" y2="68"/>
    <line x1="88" y1="96" x2="88" y2="44"/>
    <line x1="104" y1="96" x2="104" y2="72"/>
    <line x1="120" y1="96" x2="120" y2="52"/>
    <line x1="136" y1="96" x2="136" y2="80"/>
    <line x1="152" y1="96" x2="152" y2="60"/>
    <line x1="40" y1="96" x2="40" y2="116"/>
    <line x1="56" y1="96" x2="56" y2="136"/>
    <line x1="72" y1="96" x2="72" y2="124"/>
    <line x1="88" y1="96" x2="88" y2="148"/>
    <line x1="104" y1="96" x2="104" y2="120"/>
    <line x1="120" y1="96" x2="120" y2="140"/>
    <line x1="136" y1="96" x2="136" y2="112"/>
    <line x1="152" y1="96" x2="152" y2="132"/>
  </g>
</svg>
